PathFileType	4	(X/Y/Z)	22_coords_data.trc
DataRate	CameraRate	NumFrames	NumMarkers	Units	OrigDataRate	OrigDataStartFrame	OrigNumFrames
30.0	30.0	6	21	m	30.0	22	63
Frame#	Time	THUMB_TIP	THUMB_IP	THUMB_MCP	THUMB_CMC	INDEX_TIP	INDEX_DIP	INDEX_PIP	INDEX_MCP	MIDDLE_TIP	MIDDLE_DIP	MIDDLE_PIP	MIDDLE_MCP	RING_TIP	RING_DIP	RING_PIP	RING_MCP	PINKY_TIP	PINKY_DIP	PINKY_PIP	PINKY_MCP	WRIST
X1	Y1	Z1	X2	Y2	Z2	X3	Y3	Z3	X4	Y4	Z4	X5	Y5	Z5	X6	Y6	Z6	X7	Y7	Z7	X8	Y8	Z8	X9	Y9	Z9	X10	Y10	Z10	X11	Y11	Z11	X12	Y12	Z12	X13	Y13	Z13	X14	Y14	Z14	X15	Y15	Z15	X16	Y16	Z16	X17	Y17	Z17	X18	Y18	Z18	X19	Y19	Z19	X20	Y20	Z20	X21	Y21	Z21
20	0.6999999999999968	0.5465790297693761	-0.02347703132879908	-0.11621736420874551	0.5255171168223944	-0.020931961581566294	-0.12504450661132893	0.4969715149885261	-0.017779623286712565	-0.11304319921517203	0.4737511146685124	-0.030513617266915094	-0.07714684276649497	0.5603502557738048	0.06721059904383941	-0.15756061988113712	0.5497446159892316	0.05521504890839507	-0.14909733554774038	0.5346371867018301	0.04205587882178108	-0.13391143234912448	0.5106669631875734	0.020332821514757016	-0.10621353965108096	0.5291125889459017	-0.018132784918842626	-0.11727009923496007	0.5438626413406773	-0.00910331444322493	-0.12264640068496524	0.5536775178066448	0.016779060119375522	-0.11352606971733833	0.5213680773705192	0.02355717925811268	-0.0834211684445299	0.5419424539725338	-0.021442751971494756	-0.10948873410653764	0.5571052261010555	-0.011749114371399971	-0.10842867210054105	0.5659839907906333	0.007433283282450132	-0.09526116904048171	0.5330532925593626	0.008765452328519163	-0.07184076610556872	0.5991276853532154	0.019502970131909603	-0.08142655576943586	0.5845794870474479	0.010682280989374238	-0.07954364071377867	0.5659942680415766	0.0016495357327398485	-0.07582730291528	0.5337104333269334	-0.011940672458656765	-0.06722825015162626	0.4622830810018609	-0.023011742144276925	-0.051989820119430985
21	0.7333333333333302	0.546340827975724	-0.023883856410483628	-0.1165941141812204	0.5252326724910408	-0.021144677525387734	-0.1252510576989917	0.4966788041369442	-0.01799443378614507	-0.11326888066807247	0.47370595648501435	-0.030558397796030146	-0.07715399344521756	0.5617235557909965	0.06466050761966508	-0.15855267356385216	0.5505154752829895	0.05351763733177822	-0.1497087280035628	0.5348223320317173	0.04135844761169177	-0.13428507106864654	0.5103472620363516	0.020476942892059147	-0.10638220735601098	0.5308608495563574	-0.018180509102822373	-0.11816906972225968	0.5451249828701562	-0.00811829898474048	-0.12299467106776552	0.5540170451346428	0.017964797934013232	-0.11350716171012087	0.5212002272077806	0.023572683395062966	-0.08371192714465853	0.5432686134130064	-0.021411973862127176	-0.11023713266960244	0.5578896398315688	-0.01100511002798521	-0.10852752113322198	0.5660233081984661	0.008323781576470624	-0.09509556791559443	0.5329247552283004	0.00902258694388608	-0.07188526209383489	0.5998192373787194	0.018229247687379158	-0.0818247487912756	0.5850267488557991	0.009909985539840682	-0.07959491457775136	0.5662265474409296	0.0014784858388601774	-0.07556077792256621	0.5337355418441638	-0.01146952161656778	-0.06675355876751371	0.4622830810018609	-0.023011742144276925	-0.051989820119430985
22	0.7666666666666633	0.5459768796512918	-0.024678431005125845	-0.11784312809668615	0.5246791486483827	-0.021456228059473004	-0.12584463184940375	0.49622175610330044	-0.018302846489657743	-0.1136359056992175	0.47370131733190746	-0.030595932590209485	-0.07714481265353906	0.5642150087746117	0.06048081700323232	-0.15951055994105895	0.5522281230424588	0.050656147423039866	-0.15014090476680872	0.535704396913318	0.0401134089847478	-0.13439838355732953	0.510325721956133	0.02050001117714456	-0.10638278829579248	0.5342167904199215	-0.018668176738273812	-0.11929926100728722	0.5476992560654064	-0.007189686253831207	-0.12310286144856439	0.5550744265728468	0.0191107985122827	-0.11293915587167988	0.5213948776806205	0.023216400418490324	-0.08387061720177269	0.5458681539147763	-0.02196388450908915	-0.11100568736979907	0.5595341721144771	-0.010531681550166705	-0.10825892890363412	0.5664418038415702	0.008993058990940939	-0.09442964440568241	0.5330269819492859	0.008932067351988593	-0.07166636713884533	0.6009556220126592	0.015689987514841963	-0.08198445789625497	0.5858230819039372	0.008155285991168326	-0.07929475478864811	0.5666909156043709	0.0007148454744930199	-0.0748888409670262	0.5338787955691491	-0.011197615156570861	-0.06581461860323395	0.4622830810018609	-0.023011742144276925	-0.051989820119430985
23	0.7999999999999965	0.5454314105965358	-0.02580186825768699	-0.12004602692895444	0.5238158842642879	-0.021798518787784105	-0.1267349890608348	0.495553033636578	-0.018573181019389373	-0.11410057294153891	0.4736432567610277	-0.030628666427089335	-0.07716120439186908	0.5674090935694224	0.05412674201189138	-0.16066843278308085	0.5546308028176078	0.04614515783859374	-0.15061807957801115	0.5372424063821546	0.03797621470334572	-0.13440321385372597	0.5105666738052137	0.02044678336253608	-0.1062117182858889	0.5386749693975988	-0.019697738032731393	-0.12060595025272319	0.5510894413270021	-0.006715505443904701	-0.12291734025089843	0.55664853529466	0.01969001489527672	-0.11190577724304937	0.5219756100439881	0.022467214190948936	-0.08386610285775314	0.5494952273760363	-0.023195541626715	-0.11172268142819436	0.5618148680158475	-0.010666808020006524	-0.10769064860118896	0.5672389130557325	0.008996376046620957	-0.09340362978104216	0.5334150972693795	0.008309919440484759	-0.07126318947424698	0.6023624926702603	0.011530540288016311	-0.08221188523813089	0.5868497777947863	0.005098436823264052	-0.07889771532532186	0.5673509138881859	-0.0008996409359993129	-0.07393491485122394	0.5341427540604341	-0.01138564345420201	-0.0645463407825625	0.462283081001861	-0.023011742144276925	-0.051989820119430985
24	0.8333333333333297	0.5445475053876478	-0.027062972634185167	-0.1232763415720961	0.522603738337782	-0.02212724530372434	-0.12797843508249865	0.4946916769785702	-0.018736070139668937	-0.11462790094763009	0.4734777848251377	-0.030633307981211333	-0.07723383040905002	0.5708555393443442	0.045093195114640994	-0.16198876221302164	0.5574476655108028	0.039591216262731044	-0.15112795432516285	0.5394213901392556	0.034633685470665365	-0.1343206309905307	0.5113314453025265	0.020098206941780106	-0.10580202378390455	0.5436658641964552	-0.021570065502443725	-0.12239037189772253	0.5547974687776304	-0.007289634234213804	-0.12278617771086595	0.5586724821120178	0.01897016610867186	-0.11075219634100736	0.5231621075793643	0.020977257425016882	-0.08371272877970848	0.553632592099645	-0.025368724099764983	-0.1125961480331494	0.5644009145545236	-0.011999307467524922	-0.10709142911013955	0.5683995546619786	0.007654765620187298	-0.09232971283614488	0.5342159791697975	0.006749410242048504	-0.07075694453419445	0.6038082246928117	0.00522553977298823	-0.08277550236767639	0.587956828523846	0.0002573814349847159	-0.07864626003729325	0.5681978276040551	-0.003944332493480973	-0.0729244157790982	0.5345355548706967	-0.0124803382005777	-0.06318421804017027	0.462283081001861	-0.023011742144276925	-0.051989820119430985
25	0.8666666666666629	0.5431785875000781	-0.027968174308432292	-0.1275583728433536	0.5210451075041489	-0.022141057617169446	-0.12959645388595378	0.49369417304917684	-0.01854263786687904	-0.11518126190871864	0.47324145331063183	-0.03048780606492313	-0.07738061096171811	0.5735621141409721	0.033751158926512426	-0.16338301180013226	0.5600426155310979	0.031212722949860217	-0.15160254066651255	0.5421269090653535	0.030071857966180893	-0.13400323039814405	0.5128485796681	0.019327792333617977	-0.10500356530716237	0.548334951340398	-0.02407528674498083	-0.12456355474882866	0.5583677241132516	-0.009087061127218132	-0.1229214331579209	0.5610792350725222	0.016704376983162683	-0.10962259943025304	0.5250230647189637	0.01858880572015892	-0.08330626555240528	0.5575522105418939	-0.028449219923287916	-0.11376877629939053	0.5669677932637702	-0.014736002129054737	-0.10681935475976351	0.569846125822734	0.004616983514334316	-0.0914129558499992	0.5354143703107089	0.004034233482015148	-0.07022721893196943	0.6048355727602053	-0.00338156667172107	-0.08408834361502626	0.588848336621259	-0.006612770774728882	-0.07889530975395065	0.5690703818019119	-0.008695237057259608	-0.0721641986758309	0.5350094220001885	-0.014790805639891658	-0.061986845776387633	0.4622830810018609	-0.023011742144276925	-0.051989820119430985
